<?xml version="1.0" encoding="UTF-8" standalone="no" ?>
<!DOCTYPE svg PUBLIC "-//W3C//DTD SVG 1.1//EN" "http://www.w3.org/Graphics/SVG/1.1/DTD/svg11.dtd">
<svg xmlns="http://www.w3.org/2000/svg" xmlns:xlink="http://www.w3.org/1999/xlink" version="1.1" width="700" height="250" viewBox="0 0 700 250" xml:space="preserve">
<desc>Created with Fabric.js 3.6.3</desc>
<defs>
</defs>
<g transform="matrix(1 0 0 1 324.5 158.5)"  >
<g style=""   >
		<g transform="matrix(1 0 0 1 -2.14 0)" id="Camada_1"  >
<rect style="stroke: none; stroke-width: 1; stroke-dasharray: none; stroke-linecap: butt; stroke-dashoffset: 0; stroke-linejoin: miter; stroke-miterlimit: 4; fill: rgb(10,1,22); fill-rule: nonzero; opacity: 1; visibility: hidden;"  x="-398.1435" y="-306" rx="0" ry="0" width="796.287" height="612" />
</g>
		<g transform="matrix(1 0 0 1 -212.36 -33.31)" id="Camada_1"  >
<linearGradient id="SVGID_SVGID_1__5" gradientUnits="userSpaceOnUse" gradientTransform="matrix(1 0 0 1 0 0)"  x1="82.1186" y1="273.1366" x2="282.6414" y2="272.2571">
<stop offset="0%" style="stop-color:rgb(108,0,247);stop-opacity: 1"/>
<stop offset="23.880000000000003%" style="stop-color:rgb(125,0,248);stop-opacity: 1"/>
<stop offset="100%" style="stop-color:rgb(178,0,252);stop-opacity: 1"/>
</linearGradient>
<path style="stroke: none; stroke-width: 1; stroke-dasharray: none; stroke-linecap: butt; stroke-dashoffset: 0; stroke-linejoin: miter; stroke-miterlimit: 4; fill: url(#SVGID_SVGID_1__5); fill-rule: nonzero; opacity: 1;"  transform=" translate(-183.64, -272.69)" d="M 183.641 153.94 L 80.97 213.006 v 119.216 l 102.671 59.221 l 102.516 -59.376 l 0.155 -119.061 L 183.641 153.94 z M 183.641 377.372 l -90.61 -52.109 v -104.99 l 90.61 -52.882 l 90.765 52.882 l 0.155 104.372 L 183.641 377.372 z" stroke-linecap="round" />
</g>
		<g transform="matrix(1 0 0 1 -255.19 -33.54)" id="Camada_1"  >
<linearGradient id="SVGID_SVGID_2__6" gradientUnits="userSpaceOnUse" gradientTransform="matrix(1 0 0 1 -140.81 -272.46)"  x1="82.1174" y1="272.8768" x2="282.6402" y2="271.9973">
<stop offset="0%" style="stop-color:rgb(108,0,247);stop-opacity: 1"/>
<stop offset="23.880000000000003%" style="stop-color:rgb(125,0,248);stop-opacity: 1"/>
<stop offset="100%" style="stop-color:rgb(178,0,252);stop-opacity: 1"/>
</linearGradient>
<polygon style="stroke: none; stroke-width: 1; stroke-dasharray: none; stroke-linecap: butt; stroke-dashoffset: 0; stroke-linejoin: miter; stroke-miterlimit: 4; fill: url(#SVGID_SVGID_2__6); fill-rule: nonzero; opacity: 1;"  points="23.35,-63.94 22.88,64.09 -22.42,37.96 -22.58,7.04 -36.49,7.04 -36.49,46 36.49,87.59 36.49,-87.59 0.15,-66.72 0,-50.64 " />
</g>
		<g transform="matrix(1 0 0 1 -169.76 -33.54)" id="Camada_1"  >
<polygon style="stroke: none; stroke-width: 1; stroke-dasharray: none; stroke-linecap: butt; stroke-dashoffset: 0; stroke-linejoin: miter; stroke-miterlimit: 4; fill: rgb(21,232,111); fill-rule: nonzero; opacity: 1;"  points="-36.57,87.59 -23.12,80.17 -23.12,-36.26 -4.72,25.67 22.5,-21.41 22.5,53.58 36.57,45.85 36.57,-45.23 24.51,-52.34 0,-9.82 -19.71,-78.16 -36.26,-87.59 " />
</g>
		<g transform="matrix(1 0 0 1 -71.28 -39.77)" id="Camada_1"  >
<path style="stroke: none; stroke-width: 1; stroke-dasharray: none; stroke-linecap: butt; stroke-dashoffset: 0; stroke-linejoin: miter; stroke-miterlimit: 4; fill: rgb(108,0,247); fill-rule: nonzero; opacity: 1;"  transform=" translate(-324.72, -266.23)" d="M 340.961 276.637 c 0 2.297 -0.41 4.447 -1.23 6.451 s -2.039 3.697 -3.656 5.08 c -1.711 1.477 -3.773 2.619 -6.188 3.428 s -5.402 1.213 -8.965 1.213 c -2.414 0 -4.688 -0.088 -6.82 -0.263 c -2.133 -0.176 -4.008 -0.427 -5.625 -0.753 v -10.585 h 1.266 c 1.125 0.422 2.297 0.814 3.516 1.178 c 1.218 0.364 2.777 0.545 4.676 0.545 c 2.461 0 4.354 -0.329 5.678 -0.985 c 1.324 -0.657 2.268 -1.572 2.83 -2.745 c 0.539 -1.149 0.844 -2.41 0.914 -3.783 c 0.07 -1.372 0.105 -3.126 0.105 -5.261 v -20.87 h -11.988 v -9.633 h 25.488 V 276.637 z" stroke-linecap="round" />
</g>
		<g transform="matrix(1 0 0 1 -23.22 -41.35)" id="Camada_1"  >
<path style="stroke: none; stroke-width: 1; stroke-dasharray: none; stroke-linecap: butt; stroke-dashoffset: 0; stroke-linejoin: miter; stroke-miterlimit: 4; fill: rgb(108,0,247); fill-rule: nonzero; opacity: 1;"  transform=" translate(-372.78, -264.65)" d="M 392.605 292 h -12.691 v -19.582 c 0 -1.594 -0.082 -3.182 -0.246 -4.764 s -0.445 -2.748 -0.844 -3.498 c -0.469 -0.867 -1.154 -1.5 -2.057 -1.898 c -0.902 -0.398 -2.162 -0.598 -3.779 -0.598 c -1.148 0 -2.314 0.188 -3.498 0.563 c -1.184 0.375 -2.467 0.973 -3.85 1.793 V 292 h -12.691 v -54.703 h 12.691 v 19.582 c 2.247 -1.758 4.406 -3.105 6.478 -4.043 c 2.071 -0.937 4.371 -1.406 6.899 -1.406 c 4.26 0 7.59 1.243 9.988 3.727 c 2.4 2.484 3.6 6.2 3.6 11.145 V 292 z" stroke-linecap="round" />
</g>
		<g transform="matrix(1 0 0 1 26.98 -33.74)" id="Camada_1"  >
<path style="stroke: none; stroke-width: 1; stroke-dasharray: none; stroke-linecap: butt; stroke-dashoffset: 0; stroke-linejoin: miter; stroke-miterlimit: 4; fill: rgb(108,0,247); fill-rule: nonzero; opacity: 1;"  transform=" translate(-422.98, -272.26)" d="M 444.602 272.277 c 0 6.492 -1.893 11.607 -5.678 15.346 c -3.785 3.739 -9.1 5.607 -15.943 5.607 s -12.158 -1.869 -15.943 -5.607 c -3.785 -3.738 -5.678 -8.854 -5.678 -15.346 c 0 -6.539 1.904 -11.672 5.713 -15.398 s 9.111 -5.59 15.908 -5.59 c 6.891 0 12.217 1.875 15.979 5.625 C 442.721 260.664 444.602 265.786 444.602 272.277 z M 429.027 281.875 c 0.82 -1.007 1.436 -2.22 1.846 -3.639 c 0.41 -1.418 0.615 -3.38 0.615 -5.889 c 0 -2.32 -0.211 -4.266 -0.633 -5.836 c -0.422 -1.57 -1.008 -2.824 -1.758 -3.762 c -0.75 -0.961 -1.652 -1.64 -2.707 -2.039 c -1.055 -0.398 -2.191 -0.598 -3.41 -0.598 s -2.303 0.164 -3.252 0.492 c -0.949 0.329 -1.857 0.984 -2.725 1.969 c -0.773 0.914 -1.389 2.168 -1.846 3.762 c -0.457 1.594 -0.686 3.598 -0.686 6.012 c 0 2.157 0.199 4.025 0.598 5.607 s 0.984 2.854 1.758 3.814 c 0.75 0.914 1.646 1.582 2.689 2.004 s 2.232 0.633 3.568 0.633 c 1.148 0 2.244 -0.193 3.287 -0.58 S 428.301 282.789 429.027 281.875 z" stroke-linecap="round" />
</g>
		<g transform="matrix(1 0 0 1 77.5 -34.28)" id="Camada_1"  >
<path style="stroke: none; stroke-width: 1; stroke-dasharray: none; stroke-linecap: butt; stroke-dashoffset: 0; stroke-linejoin: miter; stroke-miterlimit: 4; fill: rgb(108,0,247); fill-rule: nonzero; opacity: 1;"  transform=" translate(-473.5, -271.72)" d="M 493.328 292 h -12.691 v -19.582 c 0 -1.594 -0.082 -3.182 -0.246 -4.764 s -0.445 -2.748 -0.844 -3.498 c -0.469 -0.867 -1.154 -1.5 -2.057 -1.898 c -0.902 -0.398 -2.162 -0.598 -3.779 -0.598 c -1.148 0 -2.314 0.188 -3.498 0.563 c -1.184 0.375 -2.467 0.973 -3.85 1.793 V 292 h -12.691 v -39.48 h 12.691 v 4.359 c 2.247 -1.758 4.406 -3.105 6.478 -4.043 c 2.071 -0.937 4.371 -1.406 6.899 -1.406 c 4.26 0 7.59 1.243 9.988 3.727 c 2.4 2.484 3.6 6.2 3.6 11.145 V 292 z" stroke-linecap="round" />
</g>
		<g transform="matrix(1 0 0 1 126.42 -26.5)" id="Camada_1"  >
<path style="stroke: none; stroke-width: 1; stroke-dasharray: none; stroke-linecap: butt; stroke-dashoffset: 0; stroke-linejoin: miter; stroke-miterlimit: 4; fill: rgb(108,0,247); fill-rule: nonzero; opacity: 1;"  transform=" translate(-522.42, -279.5)" d="M 522.771 278.041 l 9.009 -25.521 h 13.017 l -21.938 53.965 h -13.738 l 6.277 -14.786 l -15.355 -39.179 h 13.292 L 522.771 278.041 z" stroke-linecap="round" />
</g>
		<g transform="matrix(1 0 0 1 202.12 -40.17)" id="Camada_1"  >
<path style="stroke: none; stroke-width: 1; stroke-dasharray: none; stroke-linecap: butt; stroke-dashoffset: 0; stroke-linejoin: miter; stroke-miterlimit: 4; fill: rgb(21,232,111); fill-rule: nonzero; opacity: 1;"  transform=" translate(-598.12, -265.83)" d="M 625.559 292 h -13.43 v -35.051 l -9.703 22.746 h -9.316 l -9.703 -22.746 V 292 H 570.68 v -52.348 h 15.68 l 11.777 26.262 l 11.742 -26.262 h 15.68 V 292 z" stroke-linecap="round" />
</g>
		<g transform="matrix(1 0 0 1 248.56 -41.35)" id="Camada_1"  >
<path style="stroke: none; stroke-width: 1; stroke-dasharray: none; stroke-linecap: butt; stroke-dashoffset: 0; stroke-linejoin: miter; stroke-miterlimit: 4; fill: rgb(21,232,111); fill-rule: nonzero; opacity: 1;"  transform=" translate(-644.56, -264.65)" d="M 651.258 246.895 h -13.395 v -9.598 h 13.395 V 246.895 z M 650.906 292 h -12.691 v -39.48 h 12.691 V 292 z" stroke-linecap="round" />
</g>
		<g transform="matrix(1 0 0 1 273.17 -41.35)" id="Camada_1"  >
<path style="stroke: none; stroke-width: 1; stroke-dasharray: none; stroke-linecap: butt; stroke-dashoffset: 0; stroke-linejoin: miter; stroke-miterlimit: 4; fill: rgb(21,232,111); fill-rule: nonzero; opacity: 1;"  transform=" translate(-669.17, -264.65)" d="M 675.516 292 h -12.691 v -54.703 h 12.691 V 292 z" stroke-linecap="round" />
</g>
		<g transform="matrix(1 0 0 1 309.43 -33.83)" id="Camada_1"  >
<path style="stroke: none; stroke-width: 1; stroke-dasharray: none; stroke-linecap: butt; stroke-dashoffset: 0; stroke-linejoin: miter; stroke-miterlimit: 4; fill: rgb(21,232,111); fill-rule: nonzero; opacity: 1;"  transform=" translate(-705.43, -272.17)" d="M 726.316 274.598 h -28.969 c 0.188 3.094 1.365 5.461 3.533 7.102 c 2.168 1.641 5.361 2.461 9.58 2.461 c 2.672 0 5.262 -0.48 7.77 -1.441 c 2.508 -0.961 4.488 -1.992 5.941 -3.094 h 1.406 v 10.16 c -2.859 1.148 -5.555 1.98 -8.086 2.496 s -5.332 0.773 -8.402 0.773 c -7.922 0 -13.992 -1.781 -18.211 -5.344 s -6.328 -8.636 -6.328 -15.223 c 0 -6.516 1.998 -11.677 5.994 -15.486 c 3.996 -3.809 9.475 -5.713 16.436 -5.713 c 6.422 0 11.25 1.623 14.484 4.869 c 3.234 3.247 4.852 7.916 4.852 14.01 V 274.598 z M 713.73 267.18 c -0.07 -2.648 -0.727 -4.641 -1.969 -5.977 s -3.176 -2.004 -5.801 -2.004 c -2.438 0 -4.441 0.633 -6.012 1.898 s -2.449 3.293 -2.637 6.082 H 713.73 z" stroke-linecap="round" />
</g>
		<g transform="matrix(1 0 0 1 353.56 -33.81)" id="Camada_1"  >
<path style="stroke: none; stroke-width: 1; stroke-dasharray: none; stroke-linecap: butt; stroke-dashoffset: 0; stroke-linejoin: miter; stroke-miterlimit: 4; fill: rgb(21,232,111); fill-rule: nonzero; opacity: 1;"  transform=" translate(-749.56, -272.19)" d="M 763.863 264.578 h -1.122 c -0.538 -0.188 -1.403 -0.328 -2.597 -0.422 c -1.192 -0.093 -2.187 -0.141 -2.981 -0.141 c -1.801 0 -3.391 0.118 -4.771 0.352 c -1.38 0.234 -2.865 0.633 -4.455 1.195 V 292 h -12.691 v -39.48 h 12.691 v 5.801 c 2.783 -2.391 5.203 -3.978 7.261 -4.764 c 2.058 -0.785 3.952 -1.178 5.684 -1.178 c 0.443 0 0.946 0.012 1.508 0.035 c 0.562 0.023 1.053 0.059 1.474 0.105 V 264.578 z" stroke-linecap="round" />
</g>
</g>
</g>
</svg>